<?xml version="1.0" standalone="no"?><!DOCTYPE svg PUBLIC "-//W3C//DTD SVG 1.1//EN" "http://www.w3.org/Graphics/SVG/1.1/DTD/svg11.dtd"><svg t="1669616619812" class="icon" viewBox="0 0 1024 1024" version="1.1" xmlns="http://www.w3.org/2000/svg" p-id="6402" xmlns:xlink="http://www.w3.org/1999/xlink" width="200" height="200"><path d="M515.072 19.968c-270.848 0-491.52 220.672-491.52 491.52s220.672 491.52 491.52 491.52 491.52-220.672 491.52-491.52-220.16-491.52-491.52-491.52z m0 921.6c-237.056 0-430.08-193.024-430.08-430.08s193.024-430.08 430.08-430.08 430.08 193.024 430.08 430.08-192.512 430.08-430.08 430.08z" fill="#ffffff" p-id="6403"></path><path d="M757.76 480.768h-124.416c-11.264-42.496-44.544-76.288-87.552-87.552V268.8c0-16.896-13.824-30.72-30.72-30.72s-30.72 13.824-30.72 30.72v124.416c-42.496 11.264-76.288 44.544-87.552 87.552H272.384c-16.896 0-30.72 13.824-30.72 30.72s13.824 30.72 30.72 30.72h124.416c11.264 42.496 44.544 76.288 87.552 87.552v124.416c0 16.896 13.824 30.72 30.72 30.72s30.72-13.824 30.72-30.72V629.76c42.496-11.264 76.288-44.544 87.552-87.552H757.76c16.896 0 30.72-13.824 30.72-30.72s-13.312-30.72-30.72-30.72z m-242.688 91.648c-33.28 0-60.416-27.136-60.416-60.416s27.136-60.416 60.416-60.416c33.28 0 60.416 27.136 60.416 60.416s-26.624 60.416-60.416 60.416z" fill="#ffffff" p-id="6404"></path><path d="M650.752 406.528c7.68 0 15.872-3.072 21.504-9.216l35.84-35.84c11.776-11.776 11.776-31.232 0-43.52-11.776-11.776-31.232-11.776-43.52 0l-35.84 35.84c-11.776 11.776-11.776 31.232 0 43.52 6.656 6.144 14.336 9.216 22.016 9.216zM357.888 397.824c6.144 6.144 13.824 9.216 21.504 9.216s15.872-3.072 21.504-9.216c11.776-11.776 11.776-31.232 0-43.52l-35.84-35.84c-11.776-11.776-31.232-11.776-43.52 0-11.776 11.776-11.776 31.232 0 43.52l36.352 35.84zM357.888 625.664l-35.84 35.84c-11.776 11.776-11.776 31.232 0 43.52 6.144 6.144 13.824 9.216 21.504 9.216s15.872-3.072 21.504-9.216l35.84-35.84c11.776-11.776 11.776-31.232 0-43.52-11.776-11.776-31.232-11.776-43.008 0zM672.768 625.664c-11.776-11.776-31.232-11.776-43.52 0-11.776 11.776-11.776 31.232 0 43.52l35.84 35.84c6.144 6.144 13.824 9.216 21.504 9.216s15.872-3.072 21.504-9.216c11.776-11.776 11.776-31.232 0-43.52l-35.328-35.84z" fill="#ffffff" p-id="6405"></path></svg>